Coordinates
version=1
nRows=15
nColumns=34
inDegrees=yes

Units are S.I. units (second, meters, Newtons, ...)
If the header above contains a line with 'inDegrees', this indicates whether rotational values are in degrees (yes) or radians (no).

endheader
time	pelvis_tilt	pelvis_list	pelvis_rotation	pelvis_tx	pelvis_ty	pelvis_tz	hip_flexion_r	hip_adduction_r	hip_rotation_r	knee_angle_r	ankle_angle_r	subtalar_angle_r	mtp_angle_r	hip_flexion_l	hip_adduction_l	hip_rotation_l	knee_angle_l	ankle_angle_l	subtalar_angle_l	mtp_angle_l	lumbar_extension	lumbar_bending	lumbar_rotation	arm_flex_r	arm_add_r	arm_rot_r	elbow_flex_r	pro_sup_r	arm_flex_l	arm_add_l	arm_rot_l	elbow_flex_l	pro_sup_l
      8.16666670	      4.94327083	    -12.26195094	    -39.02330137	      3.54186879	      1.03008717	      0.97730028	    -20.64642022	      0.97384275	     -3.04528000	     10.95346155	     22.54718737	      7.56195367	      0.00000000	    -11.52957395	      6.54535208	     -1.64377512	     19.16086364	     13.12043983	      6.69680387	      0.00000000	      0.16987258	      6.88865188	     -0.21538480	      7.20400954	    -18.30867291	     27.81742458	     95.22505979	    119.74817918	      7.63399479	    -12.51240549	     21.59281240	     92.74619313	    119.74817918
      8.18333330	      4.80053070	    -12.11214841	    -38.79005743	      3.54413061	      1.02894814	      0.97705186	    -20.42161627	      0.97892846	     -3.01990154	     11.21497094	     22.64214879	      7.03072169	      0.00000000	    -12.11783379	      6.58471340	     -1.12253611	     17.67834344	     13.30605694	      7.43603143	      0.00000000	      0.45031250	      7.13711320	     -0.49239248	      6.95870902	    -18.91411372	     28.41425292	     95.26785789	    119.74817918	      7.85735378	    -12.22034510	     21.24393444	     92.27893397	    119.74817918
      8.20000000	      5.01238420	    -11.98323509	    -38.64466827	      3.54626871	      1.02803266	      0.97684235	    -20.41807827	      0.74489945	     -2.69331819	     11.64610988	     22.87657163	      6.08380443	      0.00000000	    -13.11888637	      6.86759036	     -0.49796788	     16.05028014	     13.69101436	      8.32747624	      0.00000000	      0.40846956	      7.04900417	     -0.90040245	      7.36589732	    -19.54115207	     29.57641340	     94.53384463	    119.74817918	      8.03926821	    -11.99303158	     20.80515712	     92.05891305	    119.74817918
      8.21666670	      5.17730968	    -12.03531252	    -38.46521141	      3.54752851	      1.02704453	      0.97634634	    -20.16824064	      0.67924703	     -2.45849516	     12.60155539	     23.16031366	      5.50143705	      0.00000000	    -13.96889130	      6.92317214	      0.27642759	     15.00085269	     14.67333584	      8.88889418	      0.00000000	      0.25908658	      7.07039282	     -1.28258413	      7.83903752	    -19.85029877	     30.43611765	     93.56236137	    119.74817918	      8.49354935	    -11.88028320	     20.65781426	     91.77140147	    119.74817918
      8.23333330	      5.37826412	    -12.02761830	    -38.25899851	      3.54887483	      1.02616131	      0.97646115	    -19.93903473	      0.56005387	     -2.40910716	     13.55882592	     23.53045721	      5.06475414	      0.00000000	    -14.67610656	      6.99585759	      0.82597364	     14.26497693	     15.82643596	      9.18342694	      0.00000000	      0.22041032	      6.97624573	     -1.58958054	      7.90329331	    -19.93371693	     30.90591604	     93.00330061	    119.74817918	      8.73509597	    -11.76536545	     20.38206127	     91.32751649	    119.74817918
      8.25000000	      6.05141061	    -11.67328962	    -37.75318530	      3.54973349	      1.02549101	      0.97510477	    -19.71342322	     -0.08054454	     -2.41865180	     14.80595274	     24.11365344	      4.13240276	      0.00000000	    -15.02917577	      7.60954809	      1.57547227	     14.22623114	     16.49461930	      9.69263560	      0.00000000	     -0.25362042	      6.27054696	     -2.30975620	      8.51492263	    -19.91884642	     31.87539090	     92.07115185	    119.74817918	      8.87666750	    -11.66573677	     19.41415876	     91.03135337	    119.74817918
      8.26666670	      6.48353348	    -11.45544904	    -37.55911396	      3.55094454	      1.02514682	      0.97491472	    -19.74583853	     -0.53026199	     -2.39997794	     15.36568250	     24.17956373	      3.83732171	      0.00000000	    -15.15897596	      8.04567451	      1.62092770	     14.48814457	     17.61604177	      9.32848242	      0.00000000	     -0.49129323	      5.80869677	     -2.48118024	      8.44908937	    -19.82045628	     32.18347708	     91.57340131	    119.74817918	      8.92850541	    -11.52328422	     18.95127986	     90.78621609	    119.74817918
      8.28333330	      6.80500105	    -11.02710870	    -37.07084075	      3.55134825	      1.02447498	      0.97383839	    -19.11244869	     -0.95942085	     -2.54238484	     16.73527307	     24.64818344	      2.79010509	      0.00000000	    -14.65858821	      8.53064593	      2.41969158	     15.39012577	     18.25422761	      8.53308461	      0.00000000	     -0.66991430	      5.21344021	     -3.36261107	      9.23544048	    -19.51659053	     33.27845508	     90.37603525	    119.74817918	      8.64336109	    -11.60051326	     18.09944022	     90.90441913	    119.74817918
      8.30000000	      7.28078529	    -11.19864008	    -36.79986684	      3.55083562	      1.02468877	      0.97211529	    -18.94440974	     -1.09365883	     -2.83288399	     17.93608782	     24.50332657	      1.87723863	      0.00000000	    -14.58769938	      8.71905688	      3.19664118	     16.43417593	     19.06445322	      7.63621393	      0.00000000	     -1.47982524	      5.12928788	     -3.72871773	     10.25973758	    -19.37814214	     34.26243738	     89.22924772	    119.74817918	      9.14222703	    -11.51000826	     17.93969618	     90.15579055	    119.74817918
      8.31666670	      7.55880408	    -11.17220648	    -36.62182571	      3.55141064	      1.02455056	      0.97144939	    -18.59532462	     -1.27227097	     -3.03590656	     19.07455329	     24.32293327	      0.83852451	      0.00000000	    -14.67435888	      8.98440101	      3.78355023	     16.82431669	     20.28198571	      6.69144250	      0.00000000	     -1.84100370	      4.95668959	     -4.20715040	     11.02932844	    -19.06583814	     34.97631962	     88.32556246	    119.74817918	      9.26120749	    -11.48810289	     17.56197457	     89.74782993	    119.74817918
      8.33333330	      7.80008527	    -11.24148714	    -36.83038875	      3.55221039	      1.02446355	      0.97158489	    -18.33634583	     -1.52665755	     -3.24167598	     20.08921790	     24.17331872	      0.31787066	      0.00000000	    -15.12607247	      9.23767739	      4.06181352	     16.62952238	     22.03205382	      6.05264049	      0.00000000	     -2.12191447	      4.83802709	     -4.25563987	     11.58369126	    -18.50642194	     34.98171555	     87.69984645	    119.74817918	      9.34875153	    -11.47565155	     17.42745705	     89.55860588	    119.74817918
      8.35000000	      8.09315238	    -11.05401786	    -37.06430928	      3.55263684	      1.02389435	      0.97147857	    -17.90102680	     -1.98986515	     -3.18756300	     21.18310069	     24.38207946	     -0.73105835	      0.00000000	    -15.49475860	      9.80219645	      4.31969241	     16.27075502	     23.32487828	      4.72808394	      0.00000000	     -2.32299750	      4.39657796	     -4.67974874	     12.75057304	    -17.91461237	     35.70329534	     86.81998127	    119.74817918	      9.27102991	    -11.93939037	     17.36744707	     89.86034795	    119.74817918
      8.36666670	      8.03228982	    -10.98781232	    -37.57237077	      3.55281630	      1.02294917	      0.97149008	    -17.13390223	     -2.18780340	     -2.90118468	     22.33000509	     24.17008984	     -2.16918618	      0.00000000	    -16.08531439	     10.21052729	      5.24628444	     15.07809422	     24.05158026	      2.80059798	      0.00000000	     -2.27964639	      4.27605286	     -4.75950920	     13.72843685	    -17.38474093	     35.87395567	     85.95249749	    119.74817918	      9.04758888	    -12.06459646	     17.01185221	     90.27921541	    119.74817918
      8.38333330	      7.95037148	    -11.03692036	    -38.11713012	      3.55418509	      1.02289438	      0.97247814	    -16.96426510	     -2.37810488	     -3.33942755	     22.53161323	     23.80832474	     -2.44688136	      0.00000000	    -16.57951372	     10.35521818	      5.06288990	     14.35197791	     25.33413363	      2.00855046	      0.00000000	     -2.11798893	      4.19989503	     -4.66381760	     14.11567200	    -17.00497001	     35.51120032	     85.67717113	    119.74817918	      8.71216811	    -12.27123454	     17.09204211	     90.66000946	    119.74817918
      8.40000000	      7.86145539	    -10.89923243	    -39.12766112	      3.55574769	      1.02295071	      0.97406083	    -16.66896860	     -2.68048331	     -2.64053621	     22.60264561	     23.03021446	     -3.98483531	      0.00000000	    -17.30070903	     11.09845915	      7.05412862	     12.90073493	     24.55699165	     -1.79156431	      0.00000000	     -1.82487603	      4.13579045	     -4.52151635	     14.80505707	    -16.63503136	     35.57267695	     85.42630533	    119.74817918	      7.70079490	    -12.35944136	     16.42808869	     91.70396582	    119.74817918
